<svg width="39" height="60" viewBox="0 0 39 60" fill="none" xmlns="http://www.w3.org/2000/svg">
<path d="M26.4819 56.9553H12.4419V59.9999H26.4819V56.9553Z" fill="#EFC351"/>
<path d="M18.2444 56.9552L19.4619 48.6165L20.6795 56.9552H18.2444Z" fill="#EFC351"/>
<path d="M14.021 56.9552L15.2385 48.6165L16.4561 56.9552H14.021Z" fill="#EFC351"/>
<path d="M22.4487 56.9552L23.6662 48.6165L24.8838 56.9552H22.4487Z" fill="#EFC351"/>
<path d="M38.9238 18.4422H3.61199e-07V26.8196L7.60981 31.7841C5.25995 33.4553 3.34086 35.6804 2.01594 38.2701C0.69102 40.8597 -0.000577001 43.7374 3.61199e-07 46.658V60H9.26492V48.9852C9.26492 46.2284 10.3392 43.5845 12.2515 41.6352C14.1638 39.6859 16.7575 38.5908 19.4619 38.5908C22.1664 38.5908 24.76 39.6859 26.6724 41.6352C28.5847 43.5845 29.659 46.2284 29.659 48.9852V60H38.9238V46.658C38.9212 43.738 38.2283 40.8615 36.9037 38.2724C35.579 35.6832 33.6616 33.4576 31.3141 31.7841L35.119 29.36L10.92 26.8196H39L38.9238 18.4422Z" fill="#EFC351"/>
<path d="M19.4619 15.0485C18.1273 14.165 17.0654 12.9145 16.399 11.4415C16.2149 11.0399 16.0807 10.6164 15.9994 10.181C15.9861 9.92907 15.9861 9.67661 15.9994 9.42469C16.0191 9.08409 16.0964 8.74953 16.2277 8.43569C16.6839 7.63621 17.2918 6.93741 18.016 6.3801C19.1765 5.44927 20.2229 4.67355 20.4702 3.7815C20.7175 2.88946 20.1847 1.39625 19.5379 0C20.2594 0.35305 20.9058 0.847226 21.4403 1.45443C22.0681 2.15152 22.4087 3.06812 22.3916 4.01423C22.3225 4.99051 21.9416 5.91684 21.3072 6.65159C20.7741 7.2472 20.1952 7.79838 19.576 8.29993C19.11 8.63093 18.688 9.02204 18.3204 9.46348C18.3204 9.46348 18.3204 9.46349 18.3204 9.56045C18.3204 9.65741 18.3204 9.79316 18.3204 9.92891C18.3352 10.2407 18.3669 10.5515 18.4155 10.8597C18.6611 12.2807 19.0108 13.6809 19.4619 15.0485Z" fill="#EFC351"/>
<path d="M8.37057 15.0485C7.04165 14.1639 5.98621 12.9131 5.32672 11.4415C5.13428 11.0433 4.99967 10.6187 4.92717 10.181C4.90448 9.92942 4.90448 9.67626 4.92717 9.42469C4.94691 9.08409 5.02414 8.74953 5.15545 8.43569C5.61168 7.63621 6.21961 6.93741 6.94374 6.3801C8.10423 5.44927 9.13162 4.67355 9.39796 3.7815C9.6643 2.88946 9.09358 1.39625 8.44675 0C9.16827 0.35305 9.81466 0.847226 10.3492 1.45443C10.9857 2.14601 11.3277 3.06636 11.3004 4.01423C11.2489 4.9947 10.8657 5.92668 10.216 6.65159C9.68761 7.25188 9.10823 7.80345 8.48472 8.29993C8.02789 8.63538 7.61273 9.0261 7.2482 9.46348C7.2482 9.46348 7.2482 9.46349 7.2482 9.56045C7.2482 9.65741 7.2482 9.79316 7.2482 9.92891C7.23092 10.2389 7.23092 10.5497 7.2482 10.8597C7.53603 12.2785 7.91085 13.6775 8.37057 15.0485Z" fill="#EFC351"/>
<path d="M30.6102 15.0485C29.2804 14.1595 28.2198 12.9105 27.5473 11.4415C27.3717 11.0366 27.2378 10.6141 27.1477 10.181C27.1259 9.92938 27.1259 9.6763 27.1477 9.42469C27.1582 9.08278 27.2359 8.7465 27.376 8.43569C27.8266 7.63209 28.4355 6.93223 29.1643 6.3801C30.3248 5.44927 31.3522 4.67355 31.6185 3.7815C31.8849 2.88946 31.3141 1.39625 30.6673 0C31.3888 0.35305 32.0352 0.847226 32.5698 1.45443C33.1975 2.15152 33.5381 3.06812 33.521 4.01423C33.4604 4.99256 33.0784 5.9216 32.4366 6.65159C31.9082 7.25188 31.3288 7.80345 30.7053 8.29993C30.2436 8.63646 29.8223 9.02698 29.4497 9.46348C29.4497 9.46348 29.4497 9.46349 29.4497 9.56045C29.4497 9.65741 29.4497 9.79316 29.4497 9.92891C29.4645 10.2407 29.4963 10.5515 29.5448 10.8597C29.814 12.2773 30.1698 13.6762 30.6102 15.0485Z" fill="#EFC351"/>
</svg>
