<svg width="78" height="78" viewBox="0 0 78 78" fill="none" xmlns="http://www.w3.org/2000/svg">
<path d="M39 2C39 2 17.1108 20.1596 28.0529 33.6671C29.3528 35.3292 31.0141 36.6735 32.9108 37.598C34.8075 38.5226 36.8899 39.0031 39 39.0031C41.11 39.0031 43.1924 38.5226 45.0891 37.598C46.9859 36.6735 48.6472 35.3292 49.947 33.6671C60.8892 20.1596 39 2 39 2ZM39 2L39 18.8424M2 39C2 39 20.1547 60.8941 33.6621 49.947C35.325 48.6482 36.6701 46.9876 37.5952 45.0912C38.5203 43.1947 39.0012 41.1125 39.0012 39.0024C39.0012 36.8924 38.5203 34.8102 37.5952 32.9137C36.6701 31.0173 35.325 29.3567 33.6621 28.0578C20.1547 17.1108 2 39 2 39ZM2 39L18.8424 39M39 76C39 76 60.8892 57.8453 49.947 44.3379C48.6472 42.6757 46.9859 41.3314 45.0891 40.4069C43.1924 39.4824 41.11 39.0019 39 39.0019C36.8899 39.0019 34.8075 39.4824 32.9108 40.4069C31.0141 41.3314 29.3528 42.6757 28.0529 44.3379C17.1108 57.8453 39 76 39 76ZM39 76L39 59.1576M76 39C76 39 57.8453 17.1108 44.3379 28.0578C42.675 29.3567 41.3299 31.0173 40.4048 32.9137C39.4797 34.8102 38.9989 36.8924 38.9989 39.0024C38.9989 41.1125 39.4797 43.1947 40.4048 45.0912C41.3299 46.9876 42.675 48.6482 44.3379 49.947C57.8453 60.8941 76 39 76 39ZM76 39L59.1576 39M27.5102 42.9664C10.2436 41.1559 12.8632 12.8385 12.8632 12.8385C12.8632 12.8385 41.1756 10.1992 42.991 27.4905C43.2472 29.5847 43.0231 31.7097 42.3356 33.7043C41.6481 35.6989 40.5154 37.5108 39.0233 39.0024C37.5313 40.494 35.7191 41.6261 33.7242 42.313C31.7294 42.9998 29.6043 43.2233 27.5102 42.9664ZM42.9664 50.5144C41.1509 67.7811 12.8385 65.1664 12.8385 65.1664C12.8385 65.1664 10.1942 36.8491 27.4856 35.0385C29.5796 34.7817 31.7047 35.0051 33.6996 35.692C35.6944 36.3788 37.5066 37.511 38.9987 39.0026C40.4907 40.4942 41.6235 42.306 42.3109 44.3006C42.9984 46.2952 43.2226 48.4202 42.9664 50.5144ZM50.5144 35.0385C67.8057 36.8491 65.1615 65.1664 65.1615 65.1664C65.1615 65.1664 36.8441 67.8057 35.0336 50.5144C34.7774 48.4202 35.0015 46.2952 35.689 44.3006C36.3765 42.306 37.5092 40.4942 39.0013 39.0026C40.4934 37.511 42.3056 36.3788 44.3004 35.692C46.2952 35.0051 48.4203 34.7817 50.5144 35.0385ZM35.0336 27.4905C36.8441 10.2239 65.1615 12.8385 65.1615 12.8385C65.1615 12.8385 67.8057 41.1559 50.5144 42.9664C48.4203 43.2232 46.2952 42.9998 44.3004 42.3129C42.3056 41.6261 40.4934 40.4939 39.0013 39.0023C37.5092 37.5108 36.3765 35.6989 35.689 33.7043C35.0015 31.7097 34.7774 29.5847 35.0336 27.4905Z" stroke="#EFC351" stroke-width="1.76" stroke-miterlimit="10"/>
</svg>
