<svg width="136" height="100" viewBox="0 0 136 100" fill="none" xmlns="http://www.w3.org/2000/svg">
<path d="M26.4174 2.29443V2.79443V35.718V36.218H25.9174H22.8824H22.3824V35.718V32.9389C21.2798 34.0668 20.0685 34.9557 18.7476 35.5995M26.4174 2.29443L18.5279 35.1504M26.4174 2.29443H25.9174H22.8824H22.3824V2.79443V14.905M26.4174 2.29443L22.8824 15.5028M18.7476 35.5995C18.7474 35.5996 18.7472 35.5997 18.747 35.5998L18.5279 35.1504M18.7476 35.5995C18.7479 35.5994 18.7483 35.5992 18.7486 35.599L18.5279 35.1504M18.7476 35.5995C17.0764 36.4213 15.2484 36.8293 13.2717 36.8293C9.74994 36.8293 6.7267 35.5595 4.22929 33.0349L4.22717 33.0328C1.74385 30.4919 0.5 27.3963 0.5 23.7756C0.5 20.2226 1.76221 17.1703 4.27435 14.6462C6.78648 12.122 9.82398 10.8528 13.3597 10.8528C15.3967 10.8528 17.2513 11.2835 18.9131 12.1539M18.5279 35.1504C16.9298 35.9363 15.1777 36.3293 13.2717 36.3293C9.88492 36.3293 6.98925 35.114 4.58476 32.6833C2.19492 30.238 1 27.2688 1 23.7756C1 20.3551 2.20958 17.4296 4.62874 14.9989C7.0479 12.5682 9.95822 11.3528 13.3597 11.3528C15.3244 11.3528 17.0984 11.7676 18.6819 12.5973M18.9131 12.1539C18.9128 12.1538 18.9125 12.1537 18.9122 12.1535L18.6819 12.5973M18.9131 12.1539C18.9134 12.1541 18.9136 12.1542 18.9139 12.1544L18.6819 12.5973M18.9131 12.1539C20.1976 12.8209 21.3536 13.7404 22.3824 14.905M18.6819 12.5973C20.0633 13.3144 21.2968 14.3415 22.3824 15.6785V14.905M22.3824 14.905C22.5525 15.0976 22.7192 15.2968 22.8824 15.5028M22.8824 15.5028V3.29443V2.79443V15.5028ZM9.09939 16.0006L9.0994 16.0006L9.10265 15.9987C10.4761 15.1999 11.9725 14.8002 13.6016 14.8002C16.1404 14.8002 18.2538 15.6737 19.9748 17.4236L19.9762 17.425C21.7104 19.1741 22.5803 21.3447 22.5803 23.9721C22.5803 25.698 22.1887 27.2342 21.4143 28.5932L21.4124 28.5966C20.6534 29.953 19.5635 31.0307 18.13 31.832C16.6924 32.6357 15.178 33.0348 13.5796 33.0348C11.9979 33.0348 10.5158 32.6367 9.12528 31.8366C7.75339 31.0244 6.65692 29.8962 5.83361 28.4416C5.00892 26.9846 4.60092 25.468 4.60092 23.8847C4.60092 22.2852 5.00251 20.7687 5.81152 19.328C6.63414 17.8891 7.72929 16.7837 9.09939 16.0006ZM53.7556 14.9898L53.755 14.9892C51.2384 12.2334 48.0534 10.8528 44.237 10.8528C40.4056 10.8528 37.2128 12.241 34.696 15.012C32.4126 17.5208 31.2673 20.4938 31.2673 23.9066C31.2673 27.3549 32.4758 30.3795 34.8761 32.9584L34.8782 32.9607C37.3118 35.5437 40.4458 36.8293 44.237 36.8293C48.0141 36.8293 51.134 35.5432 53.5529 32.9595C55.9682 30.3808 57.1847 27.3559 57.1847 23.9066C57.1847 20.4796 56.0397 17.4991 53.7556 14.9898ZM50.4329 17.5095L50.4343 17.511C52.1885 19.2939 53.0618 21.438 53.0618 23.9721C53.0618 25.6044 52.6657 27.1209 51.8725 28.53C51.0795 29.9386 50.0145 31.0215 48.6746 31.7899C47.3309 32.5459 45.855 32.9256 44.237 32.9256C42.619 32.9256 41.143 32.5459 39.7994 31.7899C38.4594 31.0215 37.3944 29.9386 36.6015 28.53C35.8083 27.1209 35.4122 25.6044 35.4122 23.9721C35.4122 21.4368 36.2791 19.2922 38.0191 17.5095C39.7607 15.7253 41.8248 14.8439 44.237 14.8439C46.6336 14.8439 48.6907 15.7246 50.4329 17.5095ZM62.0288 11.4641H61.5288V11.9641V23.4044C61.5288 26.8032 61.9101 29.4216 62.7167 31.208L62.7189 31.2127C63.537 32.9749 64.7693 34.3608 66.4092 35.3592L66.4139 35.362C68.0786 36.3505 70.1227 36.8293 72.5192 36.8293C74.9152 36.8293 76.9466 36.3506 78.584 35.3598L78.5852 35.3591C80.2243 34.3613 81.4499 32.9828 82.2537 31.234C83.0768 29.475 83.4655 26.9207 83.4655 23.6227V11.9641V11.4641H82.9655H79.8206H79.3206V11.9641V23.0551C79.3206 24.5326 79.2823 25.7463 79.2067 26.6999C79.1305 27.6618 79.0187 28.3257 78.8853 28.7237C78.4666 29.9573 77.7068 30.9549 76.5901 31.7256C75.5008 32.4731 74.153 32.8601 72.5192 32.8601C70.8898 32.8601 69.5102 32.4606 68.3581 31.6805C67.2239 30.9027 66.4569 29.8496 66.0492 28.503C65.7784 27.5595 65.6297 25.7632 65.6297 23.0551V11.9641V11.4641H65.1297H62.0288ZM87.1001 11.4641H86.1186L86.6956 12.2581L94.6852 23.2516L85.838 35.4241L85.2609 36.218H86.2424H89.9151H90.1706L90.3203 36.011L97.1317 26.5897L104.049 36.0139L104.199 36.218H104.452H108.191H108.654H109.182H109.554H113.337H113.614L113.761 35.9836L121.781 23.1904L129.759 35.9826L129.906 36.218H130.183H133.966H134.865L134.391 35.4544L124.284 19.1685L133.753 3.86534L134.225 3.10224H133.328H129.589H129.312L129.165 3.33785L121.784 15.1857L114.466 3.33947L114.32 3.10224H114.041H110.258H109.362L109.833 3.86491L119.28 19.1676L109.13 35.4536L108.895 35.83L108.593 35.4208L99.5956 23.2487L107.562 12.2576L108.137 11.4641H107.157H103.462H103.206L103.057 11.672L97.1286 19.9069L91.2006 11.672L91.051 11.4641H90.7948H87.1001Z" fill="#303E61" stroke="black"/>
</svg>
