<svg width="133" height="35" viewBox="0 0 133 35" fill="none" xmlns="http://www.w3.org/2000/svg">
<path d="M24.9174 0.794434V33.718H21.8824V29.6353C20.5922 31.1927 19.1407 32.3644 17.5279 33.1504C15.9298 33.9363 14.1777 34.3293 12.2717 34.3293C8.88492 34.3293 5.98925 33.114 3.58476 30.6833C1.19492 28.238 0 25.2688 0 21.7756C0 18.3551 1.20958 15.4296 3.62874 12.9989C6.0479 10.5682 8.95822 9.35282 12.3597 9.35282C14.3244 9.35282 16.0984 9.76764 17.6819 10.5973C19.28 11.4269 20.6802 12.6714 21.8824 14.3307V0.794434H24.9174ZM12.6016 12.3002C10.8862 12.3002 9.30277 12.7223 7.85127 13.5665C6.39978 14.3962 5.24151 15.5678 4.37648 17.0816C3.52611 18.5953 3.10092 20.1964 3.10092 21.8847C3.10092 23.5586 3.53344 25.1596 4.39847 26.6879C5.26351 28.2162 6.42177 29.4097 7.87327 30.2685C9.33942 31.1127 10.9082 31.5348 12.5796 31.5348C14.2657 31.5348 15.8638 31.1127 17.374 30.2685C18.8841 29.4243 20.0424 28.2817 20.8488 26.8407C21.6698 25.3998 22.0803 23.7769 22.0803 21.9721C22.0803 19.2212 21.164 16.9215 19.3313 15.073C17.5133 13.2245 15.27 12.3002 12.6016 12.3002Z" fill="#303E61"/>
<path d="M43.237 9.35282C46.917 9.35282 49.9667 10.6773 52.3858 13.3264C54.5851 15.7425 55.6847 18.6026 55.6847 21.9066C55.6847 25.2251 54.5191 28.1289 52.1879 30.6178C49.8714 33.0922 46.8877 34.3293 43.237 34.3293C39.5716 34.3293 36.5733 33.0922 34.2421 30.6178C31.9256 28.1289 30.7673 25.2251 30.7673 21.9066C30.7673 18.6171 31.8669 15.7643 34.0662 13.3482C36.4853 10.6846 39.5423 9.35282 43.237 9.35282ZM43.237 12.3439C40.6859 12.3439 38.494 13.2827 36.6613 15.1603C34.8286 17.0379 33.9122 19.3085 33.9122 21.9721C33.9122 23.6896 34.3301 25.2906 35.1658 26.7752C36.0015 28.2599 37.1304 29.4097 38.5526 30.2248C39.9748 31.0253 41.5362 31.4256 43.237 31.4256C44.9377 31.4256 46.4992 31.0253 47.9214 30.2248C49.3435 29.4097 50.4725 28.2599 51.3082 26.7752C52.1439 25.2906 52.5618 23.6896 52.5618 21.9721C52.5618 19.3085 51.6381 17.0379 49.7907 15.1603C47.958 13.2827 45.7734 12.3439 43.237 12.3439Z" fill="#303E61"/>
<path d="M61.0288 9.96413H64.1297V21.0551C64.1297 23.7623 64.2764 25.6254 64.5696 26.6443C65.0094 28.0998 65.8451 29.2496 67.0767 30.0938C68.3229 30.938 69.8038 31.3601 71.5192 31.3601C73.2346 31.3601 74.6861 30.9526 75.8737 30.1375C77.0759 29.3078 77.9043 28.2235 78.3588 26.8844C78.6667 25.9674 78.8206 24.0243 78.8206 21.0551V9.96413H81.9655V21.6227C81.9655 24.8976 81.577 27.3647 80.8 29.024C80.0376 30.6833 78.8793 31.986 77.3252 32.932C75.7857 33.8636 73.8504 34.3293 71.5192 34.3293C69.188 34.3293 67.238 33.8636 65.6692 32.932C64.1151 31.986 62.9495 30.676 62.1724 29.0022C61.41 27.3138 61.0288 24.7812 61.0288 21.4044V9.96413Z" fill="#303E61"/>
<path d="M86.1001 9.96413H89.7948L96.1286 18.7627L102.462 9.96413H106.157L97.976 21.2516L107.191 33.718H103.452L96.1286 23.7405L88.9151 33.718H85.2424L94.3033 21.2516L86.1001 9.96413Z" fill="#303E61"/>
<path d="M109.258 1.60224H113.041L120.782 14.1342L128.589 1.60224H132.328L122.695 17.1689L132.966 33.718H129.183L120.782 20.2473L112.337 33.718H108.554L118.869 17.1689L109.258 1.60224Z" fill="#303E61"/>
</svg>
