<svg width="41" height="60" viewBox="0 0 41 60" fill="none" xmlns="http://www.w3.org/2000/svg">
<path d="M39.7314 26.3543C40.5681 22.9922 41.3064 19.6179 40.3343 18.3145C40.123 18.0822 39.8621 17.8994 39.5705 17.7793C39.2789 17.6592 38.964 17.6048 38.6486 17.6201C38.3967 17.6349 38.1503 17.6996 37.9241 17.8105C37.6979 17.9214 37.4966 18.0762 37.332 18.2657C34.785 20.7021 32.4102 28.8394 32.4102 35.4053H31.0321V8.43518C31.0321 7.60811 30.7003 6.8149 30.1095 6.23007C29.5188 5.64524 28.7176 5.31669 27.8821 5.31669C27.0467 5.31669 26.2455 5.64524 25.6548 6.23007C25.0641 6.8149 24.7322 7.60811 24.7322 8.43518V33.2126H23.3417V3.09963C23.3678 2.70227 23.3112 2.30386 23.1754 1.92903C23.0397 1.5542 22.8278 1.21091 22.5527 0.920388C22.2777 0.629868 21.9454 0.398295 21.5763 0.239986C21.2073 0.0816763 20.8093 0 20.4071 0C20.0049 0 19.607 0.0816763 19.2379 0.239986C18.8689 0.398295 18.5366 0.629868 18.2615 0.920388C17.9864 1.21091 17.7745 1.5542 17.6388 1.92903C17.5031 2.30386 17.4465 2.70227 17.4725 3.09963V32.6644H16.1436V8.66664C16.1436 7.86864 15.8234 7.10332 15.2534 6.53905C14.6835 5.97478 13.9104 5.65777 13.1043 5.65777C12.2983 5.65777 11.5253 5.97478 10.9553 6.53905C10.3853 7.10332 10.0651 7.86864 10.0651 8.66664L9.86828 34.248C9.86828 44.1152 14.8762 50.7298 22.3451 50.7298C24.4361 50.6983 26.4743 50.0747 28.2187 48.9327C29.9631 47.7908 31.3407 46.1782 32.1887 44.2857C24.4738 38.8527 18.8875 43.1285 17.2141 44.7364C18.4446 45.5404 21.1516 47.1727 23.7847 46.8804C24.7083 46.7878 25.5824 46.4223 26.2934 45.8314C27.0044 45.2405 27.5194 44.4515 27.7714 43.567L29.1126 43.8593C28.8038 45.0238 28.1437 46.0674 27.2203 46.851C26.297 47.6345 25.1543 48.1207 23.9447 48.2447C19.8965 48.6954 15.9098 45.4917 15.7375 45.3577L15.2085 44.9191L15.6514 44.3831C15.7252 44.2979 23.0341 35.7707 33.4561 43.5061L33.8744 43.8228L33.6899 44.2979C33.6899 44.371 30.5891 52.1063 22.382 52.1063C14.1749 52.1063 8.52705 44.7973 8.52705 34.248C8.58797 32.8349 8.3612 31.4239 7.86023 30.0993C7.35925 28.7746 6.5943 27.5632 5.61088 26.5371C4.37727 25.2162 2.69495 24.3921 0.88593 24.2226C0.553707 24.2226 0 24.2957 0 24.5637C0.166776 25.6419 0.507451 26.6866 1.00898 27.6578C3.31302 32.3089 4.18994 37.5264 3.5314 42.6656C3.2276 44.667 3.36861 46.71 3.94453 48.6519C4.52046 50.5939 5.51746 52.388 6.86596 53.9092C10.3112 57.8439 15.7621 60 22.1851 60C28.6081 60 34.059 57.8317 37.5043 53.9092C38.8492 52.3928 39.845 50.6052 40.4229 48.6701C41.0008 46.735 41.1469 44.6987 40.8512 42.7021C40.6543 41.9103 38.2795 32.2259 39.7314 26.3543Z" fill="#EFC351"/>
</svg>
