<svg width="67" height="60" viewBox="0 0 67 60" fill="none" xmlns="http://www.w3.org/2000/svg">
<path d="M49.5229 58.2361C52.353 57.5205 54.9691 56.1273 57.1485 54.175C59.3279 52.2227 61.0059 49.7692 62.0395 47.0237C52.703 44.7949 34.4241 58.2361 34.4241 58.2361L47.5523 47.4339C39.9554 42.6618 42.0347 38.4366 42.0347 38.4366C38.5535 34.7348 36.196 30.1094 35.2396 25.1048C40.6757 38.4366 55.625 42.1285 55.625 42.1285C53.2331 31.6272 48.9521 26.6363 42.9724 23.5597C36.9927 20.4831 39.4389 17.7347 39.4389 17.7347L35.7967 18.5278C35.7967 18.5278 41.8444 14.0155 41.8444 7.90337C41.8365 7.1425 41.7174 6.38693 41.4911 5.66089C39.1399 -1.88696 28.159 -1.88696 25.8079 5.66089C25.5816 6.38693 25.4625 7.1425 25.4546 7.90337C25.4546 14.0702 32.1818 18.5278 32.1818 18.5278L28.295 17.7347C28.295 17.7347 30.2656 20.4695 24.2179 23.5597C18.1702 26.6499 13.9572 31.6272 11.5653 42.1285C11.5653 42.1285 26.5961 38.4366 31.9507 25.1048C30.9943 30.1094 28.6367 34.7348 25.1555 38.4366C25.1555 38.4366 27.2349 42.6618 19.6379 47.4339L32.7661 58.2361C32.7661 58.2361 14.4872 44.7949 5.15072 47.0237C6.18437 49.7692 7.86238 52.2227 10.0418 54.175C12.2212 56.1273 14.8373 57.5205 17.6674 58.2361H0L33.5 60C55.2172 60 67 58.2361 67 58.2361H49.5229Z" fill="#EFC351"/>
</svg>
