<svg width="1919" height="623" viewBox="0 0 1919 623" fill="none" xmlns="http://www.w3.org/2000/svg">
<path d="M0.33259 120.183L0.332593 95.4348C13.4032 94.4369 26.2638 93.0997 39.1444 92.6307C84.3564 90.9942 127.068 102.061 168.57 118.805C197.641 130.531 226.403 143.074 255.714 154.151C322.817 179.517 389.65 176.823 455.853 150.309C487.644 137.576 519.096 123.965 551.097 111.79C589.169 97.3109 628.75 90.635 669.602 92.7306C706.394 94.6166 741.405 104.136 775.377 117.788C804.828 129.613 833.95 142.266 863.601 153.572C898.512 166.894 934.794 173.37 972.336 171.534C1006.8 169.828 1039.52 160.757 1071.34 148.014C1101.87 135.78 1132.08 122.697 1162.85 111.092C1199.92 96.9747 1239.53 90.7345 1279.15 92.7705C1314.74 94.5767 1348.73 103.498 1381.66 116.56C1412.43 128.755 1442.77 142.037 1473.67 153.822C1508.41 167.064 1544.53 173.4 1581.86 171.544C1616.51 169.828 1649.42 160.677 1681.39 147.804C1711.72 135.59 1741.78 122.638 1772.39 111.102C1809.43 96.9336 1849.05 90.6948 1888.67 92.7905C1899.04 93.3494 1909.37 94.7863 1919.81 95.7842L1919.81 120.492C1913.4 119.654 1907.34 118.766 1901.27 118.077C1851.56 112.399 1804.6 123.067 1758.97 141.767C1730.32 153.512 1701.9 165.866 1672.97 176.693C1600.2 203.986 1527.65 201.711 1455.74 173.081C1424.28 160.557 1393.17 147.136 1361.57 134.981C1326.49 121.5 1290.06 115.024 1252.3 116.83C1218.62 118.466 1186.58 127.068 1155.45 139.432C1123.98 151.936 1092.93 165.537 1061.21 177.352C990.376 203.726 919.603 201.611 849.49 174.258C817.939 161.944 786.887 148.363 755.316 136.129C719.564 122.268 682.503 115.063 643.911 116.8C610.61 118.287 578.908 126.449 548.097 138.654C516.805 151.067 485.914 164.509 454.443 176.464C415.441 191.272 374.909 198.038 333.057 195.424C293.126 192.949 255.584 181.144 218.832 166.116C188.751 153.822 158.83 140.879 128.198 130.191C88.3039 116.19 45.4619 112.708 3.82273 120.083C2.66335 120.201 1.49686 120.234 0.33259 120.183Z" fill="url(#paint0_linear)" fill-opacity="0.09"/>
<path d="M0.0725772 27.8076C0.0725778 20.523 -0.207424 13.398 0.3326 6.33293C0.432605 5.03567 3.81283 3.08977 5.78291 2.96004C22.9737 1.88232 40.2144 0.136009 57.3952 0.495252C98.277 1.36342 136.639 13.4679 174.2 28.6059C205.592 41.2692 236.623 55.0401 268.624 65.967C331.857 87.5614 394.56 82.4323 456.043 57.8142C486.584 45.5901 516.775 32.4877 547.477 20.6727C586.589 5.63445 627.16 -1.75992 669.242 0.355616C703.844 2.10193 736.995 10.3346 769.057 23.0078C798.588 34.6432 827.689 47.3364 857.23 58.9319C893.852 73.2816 931.784 81.0253 971.366 79.1792C1003.84 77.6724 1034.93 69.8888 1064.99 58.0139C1096.85 45.4404 1128.25 31.7095 1160.26 19.5451C1198.33 5.06573 1237.88 -1.66007 1278.74 0.365658C1315.55 2.20178 1350.56 11.6518 1384.55 25.313C1414.56 37.2877 1444.17 50.3102 1474.39 61.7261C1541.87 87.1823 1609.07 84.518 1675.61 57.6248C1707.01 44.9316 1738.15 31.5798 1769.79 19.5352C1807.85 5.05579 1847.41 -1.82968 1888.27 0.435541C1898.68 1.00434 1909.05 2.37145 1919.71 3.42922L1919.71 28.1071C1913.49 27.2789 1907.59 26.4007 1901.71 25.7421C1857.41 20.7527 1814.7 27.8976 1773.54 43.9536C1741.08 56.5969 1709.08 70.5575 1676.59 82.9912C1637.47 97.9596 1596.88 105.424 1554.8 103.209C1514.8 101.113 1477.16 89.7769 1440.38 74.7686C1410.45 62.5544 1380.81 49.5019 1350.37 38.8444C1285.51 16.0525 1221.2 20.6328 1157.94 46.0991C1126.54 58.7424 1095.43 72.164 1063.79 84.1687C1025.53 98.688 985.786 105.464 944.714 103.228C906.153 101.113 869.661 90.4953 834.1 76.0658C803.988 63.8515 774.097 50.859 743.596 39.8223C681.663 17.4495 619.59 19.2557 558.267 42.5864C525.536 55.0302 493.434 69.1204 460.813 81.8435C420.661 97.4905 379.049 105.514 335.747 103.248C296.166 101.183 258.844 90.0262 222.392 75.2375C192.641 63.163 163.11 50.4398 132.929 39.4829C91.5971 24.2749 46.9716 20.2368 3.57273 27.7777C2.40829 27.8724 1.23848 27.8824 0.0725772 27.8076Z" fill="url(#paint1_linear)" fill-opacity="0.09"/>
<path d="M0.00262373 74.6487C0.00262434 67.7233 0.102629 60.9676 0.00262552 54.2218C-0.0873781 50.4498 2.47274 50.6095 5.00285 50.2303C47.5147 43.7839 89.5566 46.7376 130.118 60.4487C163.43 71.7149 195.821 85.6954 228.513 98.7478C255.894 109.725 283.575 119.374 312.906 123.775C354.568 130.022 395.44 126.3 434.912 112.209C466.913 100.764 498.265 87.2621 529.836 74.4891C566.698 59.5906 604.529 48.8332 644.541 47.3364C680.668 45.817 716.74 51.4188 750.696 63.8216C782.107 75.3573 812.849 88.6692 843.93 101.103C872.221 112.419 901.102 121.54 931.604 124.973C970.216 129.333 1008.03 125.312 1044.38 112.229C1077.67 100.255 1110.21 86.1745 1143.08 73.0222C1183.53 56.8264 1225.18 46.4284 1269.09 47.1868C1308.75 47.8654 1346.52 57.3254 1383.09 71.9046C1413.66 84.0689 1443.84 97.1812 1474.56 108.916C1506.82 121.405 1541.23 127.408 1575.82 126.579C1611.91 125.641 1646.26 116.6 1679.55 103.278C1710.25 90.9544 1740.62 77.7423 1771.55 66.0769C1806.46 52.9247 1842.78 46.2189 1880.24 47.3166C1892.24 47.6658 1904.16 49.2625 1916.09 50.5597C1917.48 50.7094 1919.73 52.5555 1919.79 53.7031C1920.13 60.7881 1919.96 67.8931 1919.96 74.6588C1905.24 73.4913 1891.21 71.6652 1877.14 71.3957C1837.36 70.6074 1799.6 80.2271 1763 94.9859C1734.11 106.641 1705.52 119.085 1676.44 130.251C1602.2 158.831 1528.07 157.015 1454.4 127.457C1422.98 114.844 1391.88 101.362 1360.22 89.3977C1323.04 75.3473 1284.52 68.9409 1244.54 72.184C1206.54 75.2675 1171.27 87.6114 1136.38 101.841C1106.47 114.036 1076.75 126.958 1046.12 137.037C979.386 158.991 913.113 154.061 848.22 128.665C819.569 117.458 791.358 105.144 762.776 93.7384C728.895 80.207 693.863 71.6351 657.142 71.3058C616.54 70.9366 578.188 81.0951 540.907 96.2531C510.965 108.397 481.324 121.39 451.013 132.536C379.909 158.681 308.936 156.286 238.713 128.725C208.092 116.75 177.921 103.568 147.299 91.573C113.648 78.3908 78.7361 70.737 42.4145 71.4554C28.5239 71.6949 14.6633 73.4912 0.00262373 74.6487Z" fill="url(#paint2_linear)" fill-opacity="0.09"/>
<path d="M0.332648 263.183L0.33265 238.435C13.4032 237.437 26.2638 236.1 39.1444 235.631C84.3563 233.994 127.068 245.061 168.57 261.805C197.641 273.531 226.403 286.074 255.714 297.151C322.817 322.517 389.65 319.823 455.853 293.309C487.644 280.576 519.095 266.965 551.097 254.79C589.169 240.311 628.75 233.635 669.602 235.731C706.394 237.617 741.405 247.136 775.377 260.788C804.828 272.613 833.95 285.266 863.601 296.572C898.512 309.894 934.794 316.37 972.336 314.534C1006.8 312.828 1039.52 303.757 1071.34 291.014C1101.87 278.78 1132.08 265.697 1162.85 254.092C1199.92 239.975 1239.53 233.734 1279.15 235.771C1314.74 237.577 1348.73 246.498 1381.66 259.56C1412.43 271.755 1442.77 285.037 1473.67 296.822C1508.41 310.064 1544.53 316.4 1581.86 314.544C1616.51 312.828 1649.42 303.677 1681.39 290.804C1711.72 278.59 1741.78 265.638 1772.39 254.102C1809.43 239.934 1849.05 233.695 1888.67 235.791C1899.04 236.349 1909.37 237.786 1919.81 238.784L1919.81 263.492C1913.4 262.654 1907.34 261.766 1901.27 261.077C1851.56 255.399 1804.6 266.067 1758.97 284.767C1730.32 296.512 1701.9 308.866 1672.97 319.693C1600.2 346.986 1527.65 344.711 1455.74 316.081C1424.28 303.557 1393.17 290.136 1361.57 277.981C1326.49 264.5 1290.06 258.024 1252.3 259.83C1218.62 261.466 1186.58 270.068 1155.45 282.432C1123.98 294.936 1092.93 308.537 1061.21 320.352C990.376 346.726 919.603 344.611 849.49 317.258C817.939 304.944 786.887 291.363 755.316 279.129C719.564 265.268 682.503 258.063 643.911 259.8C610.61 261.287 578.908 269.449 548.097 281.654C516.805 294.067 485.914 307.509 454.443 319.464C415.441 334.272 374.909 341.038 333.057 338.424C293.126 335.949 255.584 324.144 218.832 309.116C188.751 296.822 158.83 283.879 128.198 273.191C88.3038 259.19 45.4618 255.708 3.82276 263.083C2.66334 263.201 1.49683 263.234 0.332648 263.183Z" fill="url(#paint3_linear)" fill-opacity="0.09"/>
<path d="M0.0725245 170.808C0.0725251 163.523 -0.207381 156.398 0.332658 149.333C0.432634 148.036 3.81288 146.09 5.78298 145.96C22.9736 144.882 40.2144 143.136 57.3952 143.495C98.277 144.363 136.639 156.468 174.2 171.606C205.592 184.269 236.623 198.04 268.625 208.967C331.857 230.561 394.56 225.432 456.043 200.814C486.584 188.59 516.775 175.488 547.477 163.673C586.589 148.634 627.16 141.24 669.242 143.356C703.844 145.102 736.995 153.335 769.057 166.008C798.588 177.643 827.689 190.336 857.23 201.932C893.852 216.282 931.784 224.025 971.366 222.179C1003.84 220.672 1034.93 212.889 1064.99 201.014C1096.85 188.44 1128.25 174.709 1160.26 162.545C1198.33 148.066 1237.88 141.34 1278.74 143.366C1315.55 145.202 1350.56 154.652 1384.55 168.313C1414.56 180.288 1444.17 193.31 1474.39 204.726C1541.87 230.182 1609.07 227.518 1675.61 200.625C1707.01 187.932 1738.15 174.58 1769.79 162.535C1807.85 148.056 1847.41 141.17 1888.27 143.436C1898.68 144.004 1909.05 145.371 1919.71 146.429L1919.71 171.107C1913.49 170.279 1907.59 169.401 1901.71 168.742C1857.41 163.753 1814.7 170.898 1773.54 186.954C1741.08 199.597 1709.08 213.557 1676.59 225.991C1637.47 240.96 1596.88 248.424 1554.8 246.209C1514.8 244.113 1477.16 232.777 1440.38 217.769C1410.45 205.554 1380.81 192.502 1350.37 181.844C1285.51 159.053 1221.2 163.633 1157.94 189.099C1126.54 201.742 1095.43 215.164 1063.79 227.169C1025.53 241.688 985.786 248.464 944.714 246.228C906.153 244.113 869.661 233.495 834.1 219.066C803.988 206.852 774.097 193.859 743.596 182.822C681.663 160.45 619.59 162.256 558.267 185.586C525.536 198.03 493.434 212.12 460.813 224.844C420.661 240.49 379.049 248.514 335.747 246.248C296.166 244.183 258.844 233.026 222.392 218.237C192.641 206.163 163.11 193.44 132.929 182.483C91.5971 167.275 46.9717 163.237 3.57277 170.778C2.40834 170.872 1.23842 170.882 0.0725245 170.808Z" fill="url(#paint4_linear)" fill-opacity="0.09"/>
<path d="M0.00257409 217.649C0.00257469 210.723 0.102673 203.968 0.00257587 197.222C-0.0873896 193.45 2.47279 193.609 5.00282 193.23C47.5148 186.784 89.5565 189.738 130.118 203.449C163.43 214.715 195.821 228.695 228.513 241.748C255.894 252.725 283.575 262.374 312.907 266.775C354.568 273.022 395.44 269.3 434.912 255.209C466.913 243.764 498.265 230.262 529.836 217.489C566.698 202.591 604.529 191.833 644.541 190.336C680.668 188.817 716.74 194.419 750.696 206.822C782.107 218.357 812.849 231.669 843.93 244.103C872.221 255.419 901.102 264.54 931.604 267.973C970.216 272.333 1008.03 268.312 1044.38 255.229C1077.67 243.255 1110.21 229.174 1143.08 216.022C1183.53 199.826 1225.18 189.428 1269.09 190.187C1308.75 190.865 1346.52 200.325 1383.09 214.905C1413.66 227.069 1443.84 240.181 1474.56 251.916C1506.82 264.405 1541.23 270.408 1575.82 269.579C1611.91 268.641 1646.26 259.6 1679.55 246.278C1710.25 233.954 1740.62 220.742 1771.55 209.077C1806.46 195.925 1842.78 189.219 1880.24 190.317C1892.24 190.666 1904.16 192.262 1916.09 193.56C1917.48 193.709 1919.73 195.555 1919.79 196.703C1920.13 203.788 1919.96 210.893 1919.96 217.659C1905.24 216.491 1891.21 214.665 1877.14 214.396C1837.36 213.607 1799.6 223.227 1763 237.986C1734.11 249.641 1705.52 262.085 1676.44 273.251C1602.2 301.831 1528.07 300.015 1454.4 270.457C1422.98 257.844 1391.88 244.362 1360.22 232.398C1323.04 218.347 1284.52 211.941 1244.54 215.184C1206.54 218.268 1171.27 230.611 1136.38 244.841C1106.47 257.036 1076.75 269.958 1046.12 280.037C979.386 301.991 913.113 297.061 848.22 271.665C819.569 260.458 791.358 248.144 762.776 236.738C728.895 223.207 693.863 214.635 657.142 214.306C616.54 213.937 578.188 224.095 540.907 239.253C510.965 251.397 481.324 264.39 451.013 275.536C379.909 301.681 308.936 299.286 238.713 271.725C208.092 259.75 177.921 246.568 147.299 234.573C113.648 221.391 78.7361 213.737 42.4146 214.455C28.5239 214.695 14.6632 216.491 0.00257409 217.649Z" fill="url(#paint5_linear)" fill-opacity="0.09"/>
<path d="M0.332648 402.183L0.33265 377.435C13.4032 376.437 26.2638 375.1 39.1444 374.631C84.3563 372.994 127.068 384.061 168.57 400.805C197.641 412.531 226.403 425.074 255.714 436.151C322.817 461.517 389.65 458.823 455.853 432.309C487.644 419.576 519.095 405.965 551.097 393.79C589.169 379.311 628.75 372.635 669.602 374.731C706.394 376.617 741.405 386.136 775.377 399.788C804.828 411.613 833.95 424.266 863.601 435.572C898.512 448.894 934.794 455.37 972.336 453.534C1006.8 451.828 1039.52 442.757 1071.34 430.014C1101.87 417.78 1132.08 404.697 1162.85 393.092C1199.92 378.975 1239.53 372.734 1279.15 374.771C1314.74 376.577 1348.73 385.498 1381.66 398.56C1412.43 410.755 1442.77 424.037 1473.67 435.822C1508.41 449.064 1544.53 455.4 1581.86 453.544C1616.51 451.828 1649.42 442.677 1681.39 429.804C1711.72 417.59 1741.78 404.638 1772.39 393.102C1809.43 378.934 1849.05 372.695 1888.67 374.791C1899.04 375.349 1909.37 376.786 1919.81 377.784L1919.81 402.492C1913.4 401.654 1907.34 400.766 1901.27 400.077C1851.56 394.399 1804.6 405.067 1758.97 423.767C1730.32 435.512 1701.9 447.866 1672.97 458.693C1600.2 485.986 1527.65 483.711 1455.74 455.081C1424.28 442.557 1393.17 429.136 1361.57 416.981C1326.49 403.5 1290.06 397.024 1252.3 398.83C1218.62 400.466 1186.58 409.068 1155.45 421.432C1123.98 433.936 1092.93 447.537 1061.21 459.352C990.376 485.726 919.603 483.611 849.49 456.258C817.939 443.944 786.887 430.363 755.316 418.129C719.564 404.268 682.503 397.063 643.911 398.8C610.61 400.287 578.908 408.449 548.097 420.654C516.805 433.067 485.914 446.509 454.443 458.464C415.441 473.272 374.909 480.038 333.057 477.424C293.126 474.949 255.584 463.144 218.832 448.116C188.751 435.822 158.83 422.879 128.198 412.191C88.3038 398.19 45.4618 394.708 3.82276 402.083C2.66334 402.201 1.49683 402.234 0.332648 402.183Z" fill="url(#paint6_linear)" fill-opacity="0.09"/>
<path d="M0.0725245 309.808C0.0725251 302.523 -0.207381 295.398 0.332658 288.333C0.432634 287.036 3.81288 285.09 5.78298 284.96C22.9736 283.882 40.2144 282.136 57.3952 282.495C98.277 283.363 136.639 295.468 174.2 310.606C205.592 323.269 236.623 337.04 268.625 347.967C331.857 369.561 394.56 364.432 456.043 339.814C486.584 327.59 516.775 314.488 547.477 302.673C586.589 287.634 627.16 280.24 669.242 282.356C703.844 284.102 736.995 292.335 769.057 305.008C798.588 316.643 827.689 329.336 857.23 340.932C893.852 355.282 931.784 363.025 971.366 361.179C1003.84 359.672 1034.93 351.889 1064.99 340.014C1096.85 327.44 1128.25 313.709 1160.26 301.545C1198.33 287.066 1237.88 280.34 1278.74 282.366C1315.55 284.202 1350.56 293.652 1384.55 307.313C1414.56 319.288 1444.17 332.31 1474.39 343.726C1541.87 369.182 1609.07 366.518 1675.61 339.625C1707.01 326.932 1738.15 313.58 1769.79 301.535C1807.85 287.056 1847.41 280.17 1888.27 282.436C1898.68 283.004 1909.05 284.371 1919.71 285.429L1919.71 310.107C1913.49 309.279 1907.59 308.401 1901.71 307.742C1857.41 302.753 1814.7 309.898 1773.54 325.954C1741.08 338.597 1709.08 352.557 1676.59 364.991C1637.47 379.96 1596.88 387.424 1554.8 385.209C1514.8 383.113 1477.16 371.777 1440.38 356.769C1410.45 344.554 1380.81 331.502 1350.37 320.844C1285.51 298.053 1221.2 302.633 1157.94 328.099C1126.54 340.742 1095.43 354.164 1063.79 366.169C1025.53 380.688 985.786 387.464 944.714 385.228C906.153 383.113 869.661 372.495 834.1 358.066C803.988 345.852 774.097 332.859 743.596 321.822C681.663 299.45 619.59 301.256 558.267 324.586C525.536 337.03 493.434 351.12 460.813 363.844C420.661 379.49 379.049 387.514 335.747 385.248C296.166 383.183 258.844 372.026 222.392 357.237C192.641 345.163 163.11 332.44 132.929 321.483C91.5971 306.275 46.9717 302.237 3.57277 309.778C2.40834 309.872 1.23842 309.882 0.0725245 309.808Z" fill="url(#paint7_linear)" fill-opacity="0.09"/>
<path d="M0.00257409 356.649C0.00257469 349.723 0.102673 342.968 0.00257587 336.222C-0.0873896 332.45 2.47279 332.609 5.00282 332.23C47.5148 325.784 89.5565 328.738 130.118 342.449C163.43 353.715 195.821 367.695 228.513 380.748C255.894 391.725 283.575 401.374 312.907 405.775C354.568 412.022 395.44 408.3 434.912 394.209C466.913 382.764 498.265 369.262 529.836 356.489C566.698 341.591 604.529 330.833 644.541 329.336C680.668 327.817 716.74 333.419 750.696 345.822C782.107 357.357 812.849 370.669 843.93 383.103C872.221 394.419 901.102 403.54 931.604 406.973C970.216 411.333 1008.03 407.312 1044.38 394.229C1077.67 382.255 1110.21 368.174 1143.08 355.022C1183.53 338.826 1225.18 328.428 1269.09 329.187C1308.75 329.865 1346.52 339.325 1383.09 353.905C1413.66 366.069 1443.84 379.181 1474.56 390.916C1506.82 403.405 1541.23 409.408 1575.82 408.579C1611.91 407.641 1646.26 398.6 1679.55 385.278C1710.25 372.954 1740.62 359.742 1771.55 348.077C1806.46 334.925 1842.78 328.219 1880.24 329.317C1892.24 329.666 1904.16 331.262 1916.09 332.56C1917.48 332.709 1919.73 334.555 1919.79 335.703C1920.13 342.788 1919.96 349.893 1919.96 356.659C1905.24 355.491 1891.21 353.665 1877.14 353.396C1837.36 352.607 1799.6 362.227 1763 376.986C1734.11 388.641 1705.52 401.085 1676.44 412.251C1602.2 440.831 1528.07 439.015 1454.4 409.457C1422.98 396.844 1391.88 383.362 1360.22 371.398C1323.04 357.347 1284.52 350.941 1244.54 354.184C1206.54 357.268 1171.27 369.611 1136.38 383.841C1106.47 396.036 1076.75 408.958 1046.12 419.037C979.386 440.991 913.113 436.061 848.22 410.665C819.569 399.458 791.358 387.144 762.776 375.738C728.895 362.207 693.863 353.635 657.142 353.306C616.54 352.937 578.188 363.095 540.907 378.253C510.965 390.397 481.324 403.39 451.013 414.536C379.909 440.681 308.936 438.286 238.713 410.725C208.092 398.75 177.921 385.568 147.299 373.573C113.648 360.391 78.7361 352.737 42.4146 353.455C28.5239 353.695 14.6632 355.491 0.00257409 356.649Z" fill="url(#paint8_linear)" fill-opacity="0.09"/>
<path d="M0.332648 547.183L0.33265 522.435C13.4032 521.437 26.2638 520.1 39.1444 519.631C84.3563 517.994 127.068 529.061 168.57 545.805C197.641 557.531 226.403 570.074 255.714 581.151C322.817 606.517 389.65 603.823 455.853 577.309C487.644 564.576 519.095 550.965 551.097 538.79C589.169 524.311 628.75 517.635 669.602 519.731C706.394 521.617 741.405 531.136 775.377 544.788C804.828 556.613 833.95 569.266 863.601 580.572C898.512 593.894 934.794 600.37 972.336 598.534C1006.8 596.828 1039.52 587.757 1071.34 575.014C1101.87 562.78 1132.08 549.697 1162.85 538.092C1199.92 523.975 1239.53 517.734 1279.15 519.771C1314.74 521.577 1348.73 530.498 1381.66 543.56C1412.43 555.755 1442.77 569.037 1473.67 580.822C1508.41 594.064 1544.53 600.4 1581.86 598.544C1616.51 596.828 1649.42 587.677 1681.39 574.804C1711.72 562.59 1741.78 549.638 1772.39 538.102C1809.43 523.934 1849.05 517.695 1888.67 519.791C1899.04 520.349 1909.37 521.786 1919.81 522.784L1919.81 547.492C1913.4 546.654 1907.34 545.766 1901.27 545.077C1851.56 539.399 1804.6 550.067 1758.97 568.767C1730.32 580.512 1701.9 592.866 1672.97 603.693C1600.2 630.986 1527.65 628.711 1455.74 600.081C1424.28 587.557 1393.17 574.136 1361.57 561.981C1326.49 548.5 1290.06 542.024 1252.3 543.83C1218.62 545.466 1186.58 554.068 1155.45 566.432C1123.98 578.936 1092.93 592.537 1061.21 604.352C990.376 630.726 919.603 628.611 849.49 601.258C817.939 588.944 786.887 575.363 755.316 563.129C719.564 549.268 682.503 542.063 643.911 543.8C610.61 545.287 578.908 553.449 548.097 565.654C516.805 578.067 485.914 591.509 454.443 603.464C415.441 618.272 374.909 625.038 333.057 622.424C293.126 619.949 255.584 608.144 218.832 593.116C188.751 580.822 158.83 567.879 128.198 557.191C88.3038 543.19 45.4618 539.708 3.82276 547.083C2.66334 547.201 1.49683 547.234 0.332648 547.183Z" fill="url(#paint9_linear)" fill-opacity="0.09"/>
<path d="M0.0725245 454.808C0.0725251 447.523 -0.207381 440.398 0.332658 433.333C0.432634 432.036 3.81288 430.09 5.78298 429.96C22.9736 428.882 40.2144 427.136 57.3952 427.495C98.277 428.363 136.639 440.468 174.2 455.606C205.592 468.269 236.623 482.04 268.625 492.967C331.857 514.561 394.56 509.432 456.043 484.814C486.584 472.59 516.775 459.488 547.477 447.673C586.589 432.634 627.16 425.24 669.242 427.356C703.844 429.102 736.995 437.335 769.057 450.008C798.588 461.643 827.689 474.336 857.23 485.932C893.852 500.282 931.784 508.025 971.366 506.179C1003.84 504.672 1034.93 496.889 1064.99 485.014C1096.85 472.44 1128.25 458.709 1160.26 446.545C1198.33 432.066 1237.88 425.34 1278.74 427.366C1315.55 429.202 1350.56 438.652 1384.55 452.313C1414.56 464.288 1444.17 477.31 1474.39 488.726C1541.87 514.182 1609.07 511.518 1675.61 484.625C1707.01 471.932 1738.15 458.58 1769.79 446.535C1807.85 432.056 1847.41 425.17 1888.27 427.436C1898.68 428.004 1909.05 429.371 1919.71 430.429L1919.71 455.107C1913.49 454.279 1907.59 453.401 1901.71 452.742C1857.41 447.753 1814.7 454.898 1773.54 470.954C1741.08 483.597 1709.08 497.557 1676.59 509.991C1637.47 524.96 1596.88 532.424 1554.8 530.209C1514.8 528.113 1477.16 516.777 1440.38 501.769C1410.45 489.554 1380.81 476.502 1350.37 465.844C1285.51 443.053 1221.2 447.633 1157.94 473.099C1126.54 485.742 1095.43 499.164 1063.79 511.169C1025.53 525.688 985.786 532.464 944.714 530.228C906.153 528.113 869.661 517.495 834.1 503.066C803.988 490.852 774.097 477.859 743.596 466.822C681.663 444.45 619.59 446.256 558.267 469.586C525.536 482.03 493.434 496.12 460.813 508.844C420.661 524.49 379.049 532.514 335.747 530.248C296.166 528.183 258.844 517.026 222.392 502.237C192.641 490.163 163.11 477.44 132.929 466.483C91.5971 451.275 46.9717 447.237 3.57277 454.778C2.40834 454.872 1.23842 454.882 0.0725245 454.808Z" fill="url(#paint10_linear)" fill-opacity="0.09"/>
<path d="M0.00257409 501.649C0.00257469 494.723 0.102673 487.968 0.00257587 481.222C-0.0873896 477.45 2.47279 477.609 5.00282 477.23C47.5148 470.784 89.5565 473.738 130.118 487.449C163.43 498.715 195.821 512.695 228.513 525.748C255.894 536.725 283.575 546.374 312.907 550.775C354.568 557.022 395.44 553.3 434.912 539.209C466.913 527.764 498.265 514.262 529.836 501.489C566.698 486.591 604.529 475.833 644.541 474.336C680.668 472.817 716.74 478.419 750.696 490.822C782.107 502.357 812.849 515.669 843.93 528.103C872.221 539.419 901.102 548.54 931.604 551.973C970.216 556.333 1008.03 552.312 1044.38 539.229C1077.67 527.255 1110.21 513.174 1143.08 500.022C1183.53 483.826 1225.18 473.428 1269.09 474.187C1308.75 474.865 1346.52 484.325 1383.09 498.905C1413.66 511.069 1443.84 524.181 1474.56 535.916C1506.82 548.405 1541.23 554.408 1575.82 553.579C1611.91 552.641 1646.26 543.6 1679.55 530.278C1710.25 517.954 1740.62 504.742 1771.55 493.077C1806.46 479.925 1842.78 473.219 1880.24 474.317C1892.24 474.666 1904.16 476.262 1916.09 477.56C1917.48 477.709 1919.73 479.555 1919.79 480.703C1920.13 487.788 1919.96 494.893 1919.96 501.659C1905.24 500.491 1891.21 498.665 1877.14 498.396C1837.36 497.607 1799.6 507.227 1763 521.986C1734.11 533.641 1705.52 546.085 1676.44 557.251C1602.2 585.831 1528.07 584.015 1454.4 554.457C1422.98 541.844 1391.88 528.362 1360.22 516.398C1323.04 502.347 1284.52 495.941 1244.54 499.184C1206.54 502.268 1171.27 514.611 1136.38 528.841C1106.47 541.036 1076.75 553.958 1046.12 564.037C979.386 585.991 913.113 581.061 848.22 555.665C819.569 544.458 791.358 532.144 762.776 520.738C728.895 507.207 693.863 498.635 657.142 498.306C616.54 497.937 578.188 508.095 540.907 523.253C510.965 535.397 481.324 548.39 451.013 559.536C379.909 585.681 308.936 583.286 238.713 555.725C208.092 543.75 177.921 530.568 147.299 518.573C113.648 505.391 78.7361 497.737 42.4146 498.455C28.5239 498.695 14.6632 500.491 0.00257409 501.649Z" fill="url(#paint11_linear)" fill-opacity="0.09"/>
<defs>
<linearGradient id="paint0_linear" x1="1920" y1="-0.000182483" x2="0" y2="-0.000186956" gradientUnits="userSpaceOnUse">
<stop stop-opacity="0.02"/>
<stop offset="0.526042" stop-color="white" stop-opacity="0.16"/>
<stop offset="1" stop-opacity="0.02"/>
</linearGradient>
<linearGradient id="paint1_linear" x1="1920" y1="-0.000182483" x2="0" y2="-0.000186956" gradientUnits="userSpaceOnUse">
<stop stop-opacity="0.02"/>
<stop offset="0.526042" stop-color="white" stop-opacity="0.16"/>
<stop offset="1" stop-opacity="0.02"/>
</linearGradient>
<linearGradient id="paint2_linear" x1="1920" y1="-0.000182483" x2="0" y2="-0.000186956" gradientUnits="userSpaceOnUse">
<stop stop-opacity="0.02"/>
<stop offset="0.526042" stop-color="white" stop-opacity="0.16"/>
<stop offset="1" stop-opacity="0.02"/>
</linearGradient>
<linearGradient id="paint3_linear" x1="1920" y1="143" x2="0" y2="143" gradientUnits="userSpaceOnUse">
<stop stop-opacity="0.02"/>
<stop offset="0.526042" stop-color="white" stop-opacity="0.16"/>
<stop offset="1" stop-opacity="0.02"/>
</linearGradient>
<linearGradient id="paint4_linear" x1="1920" y1="143" x2="0" y2="143" gradientUnits="userSpaceOnUse">
<stop stop-opacity="0.02"/>
<stop offset="0.526042" stop-color="white" stop-opacity="0.16"/>
<stop offset="1" stop-opacity="0.02"/>
</linearGradient>
<linearGradient id="paint5_linear" x1="1920" y1="143" x2="0" y2="143" gradientUnits="userSpaceOnUse">
<stop stop-opacity="0.02"/>
<stop offset="0.526042" stop-color="white" stop-opacity="0.16"/>
<stop offset="1" stop-opacity="0.02"/>
</linearGradient>
<linearGradient id="paint6_linear" x1="1920" y1="282" x2="0" y2="282" gradientUnits="userSpaceOnUse">
<stop stop-opacity="0.02"/>
<stop offset="0.526042" stop-color="white" stop-opacity="0.16"/>
<stop offset="1" stop-opacity="0.02"/>
</linearGradient>
<linearGradient id="paint7_linear" x1="1920" y1="282" x2="0" y2="282" gradientUnits="userSpaceOnUse">
<stop stop-opacity="0.02"/>
<stop offset="0.526042" stop-color="white" stop-opacity="0.16"/>
<stop offset="1" stop-opacity="0.02"/>
</linearGradient>
<linearGradient id="paint8_linear" x1="1920" y1="282" x2="0" y2="282" gradientUnits="userSpaceOnUse">
<stop stop-opacity="0.02"/>
<stop offset="0.526042" stop-color="white" stop-opacity="0.16"/>
<stop offset="1" stop-opacity="0.02"/>
</linearGradient>
<linearGradient id="paint9_linear" x1="1920" y1="427" x2="0" y2="427" gradientUnits="userSpaceOnUse">
<stop stop-opacity="0.02"/>
<stop offset="0.526042" stop-color="white" stop-opacity="0.16"/>
<stop offset="1" stop-opacity="0.02"/>
</linearGradient>
<linearGradient id="paint10_linear" x1="1920" y1="427" x2="0" y2="427" gradientUnits="userSpaceOnUse">
<stop stop-opacity="0.02"/>
<stop offset="0.526042" stop-color="white" stop-opacity="0.16"/>
<stop offset="1" stop-opacity="0.02"/>
</linearGradient>
<linearGradient id="paint11_linear" x1="1920" y1="427" x2="0" y2="427" gradientUnits="userSpaceOnUse">
<stop stop-opacity="0.02"/>
<stop offset="0.526042" stop-color="white" stop-opacity="0.16"/>
<stop offset="1" stop-opacity="0.02"/>
</linearGradient>
</defs>
</svg>
