<svg width="1919" height="135" viewBox="0 0 1919 135" fill="none" xmlns="http://www.w3.org/2000/svg">
<mask id="mask0" mask-type="alpha" maskUnits="userSpaceOnUse" x="0" y="0" width="1919" height="135">
<path d="M1918.5 51.9998V135H0V47.9999L36 36.9999L71 28.9999L113 22.9999L134.5 21.4999H154L174.5 23.4999L194 27.4999L206.5 31.4999L214.249 34.8689C216.744 35.9537 219.127 37.2783 221.366 38.8242L239 50.9999L243.98 54.4074C246.988 56.4652 250.168 58.2582 253.486 59.7661L259.5 62.4999L265.522 64.5073C268.503 65.501 271.554 66.2702 274.65 66.8086L276.755 67.1748C279.914 67.7241 283.11 68.0315 286.315 68.0943L303.411 68.4295C305.8 68.4764 308.19 68.3447 310.56 68.0356L330 65.4999L353.5 60.4999L399 47.9999L442.5 36.4999L447.611 35.8029C451.528 35.2688 455.487 35.1045 459.435 35.3123L459.67 35.3247C461.883 35.4411 464.076 35.8072 466.206 36.416L467.52 36.7913C469.14 37.2543 470.598 38.1644 471.726 39.4172C473.554 41.449 474.929 43.8472 475.758 46.4521L477.105 50.6867C477.69 52.5271 478.768 54.1722 480.222 55.444C481.396 56.4717 482.757 57.2649 484.23 57.7805L484.622 57.9175C489.521 59.6324 494.616 60.7274 499.788 61.1771L503.5 61.4999H528L574 56.9999L668.5 42.9999L762.5 29.4999L808 24.4999L853.5 21.4999H885.5L914.037 24.8292C915.011 24.9428 915.972 25.1403 916.912 25.4196L931.79 29.8428C933.257 30.2789 934.658 30.911 935.955 31.722L946.673 38.4207C948.862 39.7889 950.711 41.6376 952.079 43.8267L957.5 52.4999L959.406 54.9781C961.458 57.6459 963.878 60.0101 966.592 62.0005C968.856 63.661 971.308 65.0485 973.898 66.1344L982.909 69.9132C984.633 70.6365 986.413 71.2204 988.232 71.6593L1000 74.4999L1017 76.4999L1050.5 76.9999L1089.5 73.9999L1129.5 69.4999L1216 55.9999L1300 42.9999L1333 38.5L1365.5 35.9999L1389.5 35.5L1404.5 36.9999C1408.82 37.3325 1413.1 38.1 1417.27 39.2909L1418 39.4999L1422.51 41.1226C1427.78 43.0207 1432.61 45.9794 1436.69 49.8161L1446.35 58.8897C1446.78 59.2957 1447.25 59.6625 1447.75 59.9856L1457 65.9999L1467.5 70.9999L1480 75.9999L1493.5 79.9999L1515.5 84.4999L1539 86.9999L1562.5 87.4999L1586.5 86.4999L1608 83.4999L1629.5 78.4999L1644 73.4999L1653.79 69.6553C1656.59 68.5541 1659.31 67.2229 1661.6 65.2589C1664.99 62.3373 1668.53 58.5889 1669.5 57.4999C1671.89 54.8089 1675.18 48.8397 1678.5 42.8002L1679.05 41.8155C1682.85 34.9063 1688.11 28.9268 1694.75 24.6637C1698.13 22.4925 1701.99 20.1718 1706 17.9999C1715 13.1249 1725.25 8.99985 1732.5 6.99978C1742.1 3.39961 1771 0 1784.5 0.999913L1785.23 1.05381C1791.83 1.53612 1814.01 3.15832 1826.5 6.99978C1831.38 8.5 1837.23 9.14699 1851.5 14.5C1855.5 16.0002 1869.5 20.5 1892.5 34.4998C1896.33 36.8331 1905.3 42.3998 1910.5 45.9998C1915.7 49.5998 1918 51.4998 1918.5 51.9998Z" fill="#C4C4C4"/>
</mask>
<g mask="url(#mask0)">
<path d="M-3 49.3373C-3 49.3373 164 -14.1621 236.75 49.3373C309.5 112.837 471 -4.16311 476.5 49.3373C482 102.838 916 -35.1623 956 49.3373C996 133.837 1386 -6.66225 1435.5 49.3373C1485 105.337 1657 94.8368 1675.25 49.3373C1693.5 3.83775 1803 -31.6623 1915 49.3373C2027 130.337 1915 986.337 1915 986.337H-3V49.3373Z" fill="#303E61"/>
</g>
</svg>
